<?xml version="1.0" encoding="iso-8859-1"?>
<!-- Generator: Adobe Illustrator 19.0.0, SVG Export Plug-In . SVG Version: 6.00 Build 0)  -->
<svg version="1.1" id="Layer_1" xmlns="http://www.w3.org/2000/svg" xmlns:xlink="http://www.w3.org/1999/xlink" x="0px" y="0px"
	 viewBox="0 0 512 512" style="enable-background:new 0 0 512 512;" xml:space="preserve">
<circle style="fill:#91DD5A;" cx="256" cy="256" r="247.916"/>
<path style="fill:#7ED63F;" d="M256,8.084c-10.96,0-21.752,0.72-32.337,2.099C345.304,26.029,439.242,130.04,439.242,256
	s-93.939,229.971-215.579,245.817c10.585,1.379,21.377,2.099,32.337,2.099c136.921,0,247.916-110.996,247.916-247.916
	S392.921,8.084,256,8.084z"/>
<path style="fill:#FCFCFC;" d="M255.461,379.298c-101.09-0.235-183.242-66.604-183.242-148.15c0-81.69,82.444-148.15,183.781-148.15
	s183.781,66.46,183.781,148.15v10.18c0,43.427-20.61,96.062-53.788,137.364c-34.706,43.205-77.794,68.624-121.326,71.574
	l-9.206,0.624V379.298z"/>
<g>
	<path style="fill:#91DD5A;" d="M180.547,285.642h-32.337c-4.466,0-8.084-3.62-8.084-8.084v-64.674c0-4.465,3.618-8.084,8.084-8.084
		c4.466,0,8.084,3.62,8.084,8.084v56.589h24.253c4.466,0,8.084,3.62,8.084,8.084C188.632,282.023,185.013,285.642,180.547,285.642z"
		/>
	<path style="fill:#91DD5A;" d="M212.884,285.642c-4.466,0-8.084-3.62-8.084-8.084v-64.674c0-4.465,3.618-8.084,8.084-8.084
		s8.084,3.62,8.084,8.084v64.674C220.968,282.023,217.35,285.642,212.884,285.642z"/>
	<path style="fill:#91DD5A;" d="M299.117,285.642c-2.653,0-5.2-1.31-6.727-3.6l-28.306-42.457v37.973
		c0,4.465-3.618,8.084-8.084,8.084s-8.084-3.62-8.084-8.084v-64.674c0-3.562,2.331-6.705,5.741-7.737
		c3.414-1.032,7.094,0.29,9.069,3.253l28.306,42.457v-37.973c0-4.465,3.618-8.084,8.084-8.084s8.084,3.62,8.084,8.084v64.674
		c0,3.562-2.331,6.704-5.741,7.737C300.684,285.53,299.896,285.642,299.117,285.642z"/>
	<path style="fill:#91DD5A;" d="M374.568,253.305c4.466,0,8.084-3.62,8.084-8.084c0-4.465-3.618-8.084-8.084-8.084h-24.253v-16.168
		h24.253c4.466,0,8.084-3.62,8.084-8.084c0-4.465-3.618-8.084-8.084-8.084h-32.337c-4.466,0-8.084,3.62-8.084,8.084v64.674
		c0,4.465,3.618,8.084,8.084,8.084h32.337c4.466,0,8.084-3.62,8.084-8.084c0-4.465-3.618-8.084-8.084-8.084h-24.253v-16.168H374.568
		z"/>
</g>
<path d="M437.019,74.981C388.667,26.628,324.379,0,256,0S123.333,26.628,74.982,74.981C26.628,123.333,0,187.62,0,256
	s26.628,132.667,74.982,181.019C123.333,485.372,187.62,512,256,512s132.667-26.628,181.019-74.981
	C485.372,388.667,512,324.379,512,256S485.372,123.333,437.019,74.981z M256,495.832C123.756,495.832,16.168,388.244,16.168,256
	S123.756,16.168,256,16.168S495.832,123.756,495.832,256S388.244,495.832,256,495.832z"/>
<path d="M180.547,269.474h-24.253v-56.589c0-4.465-3.618-8.084-8.084-8.084c-4.466,0-8.084,3.62-8.084,8.084v64.674
	c0,4.465,3.618,8.084,8.084,8.084h32.337c4.466,0,8.084-3.62,8.084-8.084C188.632,273.093,185.013,269.474,180.547,269.474z"/>
<path d="M212.884,204.8c-4.466,0-8.084,3.62-8.084,8.084v64.674c0,4.465,3.618,8.084,8.084,8.084s8.084-3.62,8.084-8.084v-64.674
	C220.968,208.42,217.35,204.8,212.884,204.8z"/>
<path d="M299.116,204.8c-4.466,0-8.084,3.62-8.084,8.084v37.973L262.726,208.4c-1.976-2.964-5.656-4.285-9.069-3.253
	c-3.409,1.033-5.741,4.175-5.741,7.737v64.674c0,4.465,3.618,8.084,8.084,8.084s8.084-3.62,8.084-8.084v-37.973l28.306,42.457
	c1.527,2.291,4.074,3.601,6.727,3.6c0.779,0,1.567-0.113,2.342-0.347c3.409-1.033,5.741-4.175,5.741-7.737v-64.674
	C307.2,208.42,303.582,204.8,299.116,204.8z"/>
<path d="M374.568,220.968c4.466,0,8.084-3.62,8.084-8.084c0-4.465-3.618-8.084-8.084-8.084h-32.337c-4.466,0-8.084,3.62-8.084,8.084
	v64.674c0,4.465,3.618,8.084,8.084,8.084h32.337c4.466,0,8.084-3.62,8.084-8.084c0-4.465-3.618-8.084-8.084-8.084h-24.253v-16.168
	h24.253c4.466,0,8.084-3.62,8.084-8.084c0-4.465-3.618-8.084-8.084-8.084h-24.253v-16.168H374.568z"/>
<path d="M390.643,120.476C354.603,91.442,306.784,75.453,256,75.453s-98.603,15.989-134.643,45.024
	c-36.552,29.445-56.683,68.749-56.683,110.672c0,35.781,14.671,69.65,41.695,97.114c3.131,3.182,8.256,3.217,11.413,0.06
	c0.038-0.038,0.077-0.077,0.114-0.114c3.104-3.104,3.139-8.132,0.064-11.264c-23.247-23.681-37.117-53.472-37.117-85.796
	c0-76.936,78.575-139.527,175.158-139.527s175.158,62.591,175.158,139.527v10.18c0,41.555-19.882,92.12-51.889,131.963
	c-33.378,41.552-73.994,65.579-115.185,68.371v-62.903c0-4.444-3.586-8.085-8.03-8.084c-41.029,0.01-78.807-11.279-108.699-30.163
	c-3.192-2.016-7.342-1.597-10.01,1.071l-0.115,0.115c-3.625,3.625-2.977,9.692,1.353,12.439
	c31.327,19.871,69.243,31.224,109.335,32.571v63.312c0,4.448,3.598,8.083,8.046,8.084c25.579,0.008,50.957-7.21,75.429-21.45
	c21.763-12.664,42.678-31.074,60.483-53.238c34.203-42.578,55.451-97.023,55.451-142.088v-10.18
	C447.326,189.225,427.196,149.921,390.643,120.476z"/>
<g>
</g>
<g>
</g>
<g>
</g>
<g>
</g>
<g>
</g>
<g>
</g>
<g>
</g>
<g>
</g>
<g>
</g>
<g>
</g>
<g>
</g>
<g>
</g>
<g>
</g>
<g>
</g>
<g>
</g>
</svg>
